# xmcd
#
# Track frame offsets: 
#        150
#        14163
#        25730
#        39713
#        51831
#        62852
#        74210
#        84197
#        97645
#        109758
#        124784
#        140207
#        157272
#        172652
#        186916
#        203100
#
# Disc length: 2937 seconds
#
# Revision: 0
# Processed by: cddbd v1.5.1PL0 Copyright (c) Steve Scherf et al.
# Submitted via: ExactAudioCopy v0.95a5
#
DISCID=e50b7710
DTITLE=GRUPO ZAAZ - 20 ANIVERSARIO (HOMENAJE ESPECIAL)
DYEAR=2004
DGENRE=CUMBIA
TTITLE0=TRISTE DAMISELA
TTITLE1=HOLA
TTITLE2=EL BAUL DE LOS RECUERDOS
TTITLE3=COSITAS BONITAS
TTITLE4=CUANDO HABLES POR TELEFONO
TTITLE5=SE QUE TE VAS
TTITLE6=ENTRE LAS FLORES
TTITLE7=ALEJATE
TTITLE8=SABOR AMARGO
TTITLE9=CUMBIA BARULERA
TTITLE10=SIN TU AMOR
TTITLE11=POR VOLVERTE A VER
TTITLE12=LA PROBADITA
TTITLE13=SE QUEMA EL MONTE
TTITLE14=EL LLAVERO
TTITLE15=SABES AMOR
EXTD=
EXTT0=
EXTT1=
EXTT2=
EXTT3=
EXTT4=
EXTT5=
EXTT6=
EXTT7=
EXTT8=
EXTT9=
EXTT10=
EXTT11=
EXTT12=
EXTT13=
EXTT14=
EXTT15=
PLAYORDER=
